<svg id="visual" viewBox="0 0 960 540" width="960" height="540" xmlns="http://www.w3.org/2000/svg" xmlns:xlink="http://www.w3.org/1999/xlink" version="1.1"><rect x="0" y="0" width="960" height="540" fill="#a576c4"></rect><path d="M0 257L137 257L137 342L274 342L274 271L411 271L411 311L549 311L549 278L686 278L686 239L823 239L823 231L960 231L960 239L960 541L960 541L823 541L823 541L686 541L686 541L549 541L549 541L411 541L411 541L274 541L274 541L137 541L137 541L0 541Z" fill="#560090"></path><path d="M0 372L137 372L137 412L274 412L274 359L411 359L411 384L549 384L549 357L686 357L686 410L823 410L823 401L960 401L960 327L960 541L960 541L823 541L823 541L686 541L686 541L549 541L549 541L411 541L411 541L274 541L274 541L137 541L137 541L0 541Z" fill="#8947ba"></path><path d="M0 486L137 486L137 442L274 442L274 440L411 440L411 476L549 476L549 476L686 476L686 422L823 422L823 452L960 452L960 470L960 541L960 541L823 541L823 541L686 541L686 541L549 541L549 541L411 541L411 541L274 541L274 541L137 541L137 541L0 541Z" fill="#bc80e5"></path></svg>